<?xml version="1.0" encoding="UTF-8" standalone="no"?>
<!-- Created with Inkscape (http://www.inkscape.org/) -->

<svg
   xmlns:osb="http://www.openswatchbook.org/uri/2009/osb"
   xmlns:dc="http://purl.org/dc/elements/1.1/"
   xmlns:cc="http://creativecommons.org/ns#"
   xmlns:rdf="http://www.w3.org/1999/02/22-rdf-syntax-ns#"
   xmlns:svg="http://www.w3.org/2000/svg"
   xmlns="http://www.w3.org/2000/svg"
   xmlns:sodipodi="http://sodipodi.sourceforge.net/DTD/sodipodi-0.dtd"
   xmlns:inkscape="http://www.inkscape.org/namespaces/inkscape"
   width="210mm"
   height="297mm"
   viewBox="0 0 744.09448819 1052.3622047"
   id="svg2"
   version="1.1"
   inkscape:version="0.91 r13725"
   sodipodi:docname="paenko.svg">
  <defs
     id="defs4">
    <linearGradient
       id="linearGradient4513"
       osb:paint="solid">
      <stop
         style="stop-color:#0000ff;stop-opacity:1;"
         offset="0"
         id="stop4515" />
    </linearGradient>
  </defs>
  <sodipodi:namedview
     id="base"
     pagecolor="#ffffff"
     bordercolor="#666666"
     borderopacity="1.0"
     inkscape:pageopacity="0.0"
     inkscape:pageshadow="2"
     inkscape:zoom="0.50056657"
     inkscape:cx="208.33834"
     inkscape:cy="560.04139"
     inkscape:document-units="px"
     inkscape:current-layer="layer1"
     showgrid="false"
     inkscape:window-width="1920"
     inkscape:window-height="1017"
     inkscape:window-x="-8"
     inkscape:window-y="-8"
     inkscape:window-maximized="1" />
  <metadata
     id="metadata7">
    <rdf:RDF>
      <cc:Work
         rdf:about="">
        <dc:format>image/svg+xml</dc:format>
        <dc:type
           rdf:resource="http://purl.org/dc/dcmitype/StillImage" />
        <dc:title />
      </cc:Work>
    </rdf:RDF>
  </metadata>
  <g
     inkscape:label="Ebene 1"
     inkscape:groupmode="layer"
     id="layer1">
    <text
       xml:space="preserve"
       style="font-style:normal;font-weight:normal;font-size:40px;line-height:125%;font-family:sans-serif;letter-spacing:0px;word-spacing:0px;fill:#000000;fill-opacity:1;stroke:none;stroke-width:1px;stroke-linecap:butt;stroke-linejoin:miter;stroke-opacity:1"
       x="128.57143"
       y="560.93365"
       id="text3336"
       sodipodi:linespacing="125%"><tspan
         sodipodi:role="line"
         id="tspan3338"
         x="128.57143"
         y="560.93365" /></text>
    <path
       style="font-style:normal;font-variant:normal;font-weight:normal;font-stretch:normal;font-size:37.62070847px;line-height:125%;font-family:Courier;-inkscape-font-specification:Courier;letter-spacing:0px;word-spacing:0px;fill:#333333;fill-opacity:1;stroke:none;stroke-width:1px;stroke-linecap:butt;stroke-linejoin:miter;stroke-opacity:1"
       d="m 496.83103,781.2976 0,131.56619 18.36028,0 0,-31.54108 -0.10984,-10.34069 46.20338,41.88177 23.9174,0 -52.9039,-45.3259 49.19318,-49.12342 -23.15335,0 -43.14678,47.27295 0,-84.38982 z m -431.817244,5.66276 0,125.90343 19.345999,0 0,-46.92507 29.241195,0 c 10.4201,0 19.04988,-1.07582 25.88809,-3.21789 6.83816,-2.19847 12.75616,-5.46776 17.77083,-9.80832 4.0378,-3.49495 7.16885,-7.60488 9.38311,-12.34006 2.27938,-4.79147 3.4208,-9.97723 3.4208,-15.55795 0,-7.32817 -1.52918,-13.3852 -4.59006,-18.17672 -2.99579,-4.79148 -7.26826,-8.79836 -12.80392,-12.0115 -4.68905,-2.7058 -10.06177,-4.68346 -16.11841,-5.92364 -6.05668,-1.29652 -13.44085,-1.94228 -22.16767,-1.94228 z m 19.345999,14.37902 29.038295,0 c 6.12179,0 11.16975,0.38988 15.14239,1.17892 4.03781,0.73279 7.61964,1.97287 10.74565,3.72037 3.58188,2.02937 6.25251,4.65279 8.0109,7.86593 1.75838,3.21314 2.63806,6.99455 2.63806,11.3351 0,3.72046 -0.64947,7.07189 -1.95197,10.0595 -1.23735,2.98768 -3.38454,5.83662 -6.44543,8.54238 -3.0609,2.64945 -7.03047,4.58684 -11.91486,5.82701 -4.88444,1.18376 -11.24104,1.77802 -19.05612,1.77802 l -26.206915,0 z m 245.177425,14.45631 c -15.89062,0 -28.7202,4.53994 -38.48904,13.61561 -9.70367,9.07573 -14.56263,21.33307 -14.56263,36.77866 0,15.61469 5.07947,27.67714 15.23907,36.18914 10.15959,8.45558 24.29778,12.68793 42.40266,12.68793 7.0987,0 13.87457,-0.75852 20.32201,-2.28051 6.44741,-1.52204 12.76285,-3.41758 18.94975,-5.6724 0,-10.24603 0.005,-8.85116 0.005,-15.77872 -4.16352,1.99409 -10.03179,4.11262 -16.93803,6.43558 -7.70558,2.15854 -15.10841,3.4292 -22.53271,3.4292 -5.60082,0 -10.75297,-0.6764 -15.44198,-2.02932 -4.62396,-1.35288 -8.62499,-3.3821 -12.01154,-6.08791 -3.51677,-2.76215 -6.2819,-6.28748 -8.30078,-10.57164 -2.01888,-4.34054 -3.03428,-9.41359 -3.03428,-15.21977 l 80.39887,0 0,-8.62934 c 0,-13.69809 -4.00108,-24.26443 -12.01154,-31.70536 -7.94529,-7.44093 -19.27722,-11.16115 -33.99556,-11.16115 z m 115.22876,0 c -6.44746,0 -12.73138,1.15795 -18.85317,3.46913 -6.12179,2.31122 -12.04949,5.51928 -17.78052,9.63435 l 0,-10.4847 -18.36998,0 0,94.44932 18.36998,0 0,-70.51327 c 5.01467,-3.32587 10.25168,-6.06208 15.72221,-8.2042 5.47058,-2.14206 10.71724,-3.21788 15.73191,-3.21788 4.88443,0 8.85401,0.59432 11.91491,1.77808 3.06089,1.12741 5.40675,2.87961 7.03487,5.24721 1.56302,2.14207 2.64145,5.12469 3.22754,8.95786 0.58615,3.77687 0.87939,7.83526 0.87939,12.17581 l 0,53.77639 18.36033,0 0,-61.30411 c 0,-11.55601 -3.08989,-20.40077 -9.27679,-26.54518 -6.18696,-6.1444 -15.17297,-9.21881 -26.96068,-9.21881 z m 186.45986,0 c -15.43474,0 -27.71905,4.47875 -36.83663,13.44171 -9.05242,8.90656 -13.57698,21.06084 -13.57698,36.45002 0,15.38925 4.52456,27.53387 13.57698,36.44043 9.11758,8.90657 21.40189,13.36437 36.83663,13.36437 15.30449,0 27.50641,-4.4578 36.62399,-13.36437 9.11758,-8.90656 13.6833,-21.05118 13.6833,-36.44043 -6e-5,-15.38918 -4.56572,-27.54346 -13.6833,-36.45002 -9.11758,-8.96296 -21.3195,-13.44171 -36.62399,-13.44171 z m -414.30453,0.33843 c -6.57772,0 -13.24938,0.51211 -20.02244,1.52678 -6.77305,1.0147 -11.95672,1.93748 -15.5386,2.78303 l 0,16.81421 c 8.29529,-2.71763 13.47768,-4.31378 19.34595,-5.39213 5.92641,-1.1274 11.29913,-1.69108 16.11847,-1.69108 3.97264,0 7.78463,0.2256 11.43167,0.67644 3.64704,0.45072 6.7684,1.32224 9.37342,2.61877 2.7353,1.35287 4.81943,3.20814 6.25217,5.57572 1.49789,2.36759 2.25156,5.35987 2.25156,8.96757 l 0,2.45446 c -10.68058,0.45122 -20.68201,1.12737 -29.99497,2.02932 -9.3129,0.90195 -17.28357,2.61388 -23.92635,5.15052 -6.57771,2.5367 -11.65719,6.03145 -15.23908,10.48476 -3.51676,4.3969 -5.72366,11.3122 -5.27619,17.33597 0.58971,7.93861 3.4146,15.9315 10.25282,21.56857 6.83815,5.63707 15.1747,8.4554 25.00864,8.4554 5.34033,0 10.00054,-0.45073 13.97317,-1.35288 3.9727,-0.84556 7.4818,-1.92136 10.5427,-3.21789 2.60502,-1.01466 5.27566,-2.36744 8.0109,-4.05858 2.80039,-1.74751 5.02024,-3.10028 6.64836,-4.05858 l 0,10.0595 18.2637,0 0,-64.08716 c 0,-6.08804 -1.06873,-11.19167 -3.21787,-15.3067 -2.14916,-4.11509 -5.28021,-7.4665 -9.38313,-10.05956 -4.16802,-2.6494 -9.11178,-4.51436 -14.84287,-5.58537 -5.66591,-1.12742 -12.34723,-1.69109 -20.03203,-1.69109 z m 111.6399,12.76526 c 9.76883,0 17.02699,2.28525 21.78117,6.85126 4.81927,4.56607 7.25963,11.02247 7.3248,19.36534 l -62.52172,0 c 0.78147,-7.44096 4.07006,-13.67191 9.86625,-18.6889 5.8613,-5.01698 13.71555,-7.5277 23.5495,-7.5277 z m 302.66463,0.59911 c 9.83396,0 17.51137,2.98262 23.04702,8.95791 5.53565,5.91893 7.97908,14.99882 7.97908,27.23122 0,11.95064 -2.4749,20.96931 -8.0757,27.05736 -5.5357,6.03165 -13.18161,9.04485 -22.9504,9.04485 -9.89909,0 -17.61769,-3.04383 -23.15334,-9.13183 -5.53569,-6.14439 -7.31624,-15.1325 -7.31624,-26.97038 0,-12.2324 1.74908,-21.31229 7.21962,-27.23122 5.53564,-5.97529 13.28575,-8.95791 23.24996,-8.95791 z m -385.09233,33.82165 0,26.29389 c -4.55879,3.04402 -9.5122,5.6675 -14.85251,7.86597 -5.34032,2.14208 -11.22681,3.2082 -17.67425,3.2082 -7.74991,0 -13.52008,-1.35278 -17.29733,-4.05859 -3.77726,-2.76216 -5.6627,-6.85117 -5.6627,-12.26273 0,-4.79153 1.62371,-8.53267 4.87998,-11.23847 3.25628,-2.76216 7.52875,-4.79138 12.8039,-6.08791 4.42853,-1.07101 10.41921,-1.89079 17.97378,-2.45446 7.61968,-0.56373 14.22838,-0.98403 19.82913,-1.2659 z"
       id="text3342"
       inkscape:connector-curvature="0"
       sodipodi:nodetypes="cccccccccccccccccscscscccsccsccsscccsccscscsscccscccccscssscccccccscccsccsssssscssscssscccccccscsccsasccccccssccssscccsscscscscscccscsccccc" />
    <g
       id="g5199"
       transform="matrix(1.3043117,0,0,1.3043117,96.805129,-206.91755)">
      <path
         inkscape:connector-curvature="0"
         id="path5060"
         d="M 142.90025,722.26235 302.05247,538.08479 278.47636,500.04095 130.55826,694.10263 Z"
         style="fill:#0088aa;fill-rule:evenodd;stroke:#000000;stroke-width:3.93254519;stroke-linecap:butt;stroke-linejoin:miter;stroke-miterlimit:4;stroke-dasharray:none;stroke-opacity:1" />
      <path
         inkscape:connector-curvature="0"
         id="path5060-7"
         d="m 159.41388,622.20052 106.27214,-144.1094 -19.92309,-33.2337 -97.3062,153.05746 z"
         style="fill:#37abc8;fill-rule:evenodd;stroke:#000000;stroke-width:3.93254519;stroke-linecap:butt;stroke-linejoin:miter;stroke-miterlimit:4;stroke-dasharray:none;stroke-opacity:1" />
      <path
         inkscape:connector-curvature="0"
         id="path5060-1"
         d="M 170.45895,536.37876 236.43529,429.79421 220.67942,402.81732 161.45593,516.8597 Z"
         style="fill:#5fbcd3;fill-rule:evenodd;stroke:#000000;stroke-width:3.93254519;stroke-linecap:butt;stroke-linejoin:miter;stroke-miterlimit:4;stroke-dasharray:none;stroke-opacity:1" />
      <path
         inkscape:connector-curvature="0"
         id="path5060-0"
         d="M 174.69374,469.38242 213.45601,390.2685 200.93564,368.30595 167.28392,453.6347 Z"
         style="fill:#87cdde;fill-rule:evenodd;stroke:#000000;stroke-width:3.93254519;stroke-linecap:butt;stroke-linejoin:miter;stroke-miterlimit:4;stroke-dasharray:none;stroke-opacity:1" />
      <path
         inkscape:connector-curvature="0"
         id="path5060-0-9"
         d="m 175.0438,410.09955 19.47392,-51.55167 -6.29016,-14.31105 -16.90644,55.60124 z"
         style="fill:#afdde9;fill-rule:evenodd;stroke:#000000;stroke-width:3.93254519;stroke-linecap:butt;stroke-linejoin:miter;stroke-miterlimit:4;stroke-dasharray:none;stroke-opacity:1" />
    </g>
  </g>
</svg>
